<svg xmlns="http://www.w3.org/2000/svg" width="149.641" height="26.297" viewBox="639 -2540 149.641 26.297"><g data-name="CompositeLayer"><g data-name="Group 215"><path d="M665.046-2526.869a16.091 16.091 0 0 1-12.915 12.915h12.915v-12.915Z" fill="#7868e6" fill-rule="evenodd" data-name="Path 192"/><path d="M665.046-2526.978V-2540H639v26.045h13.023v-13.023h13.023Z" fill="#7868e6" fill-rule="evenodd" data-name="Path 193"/></g><path d="M685.688-2526.777c0 3.748-3.14 7.01-6.949 7.01-2.041 0-3.84-.976-5.059-2.469v8.228h-2.041v-19.505h2.041v2.194c1.22-1.462 3.018-2.407 5.06-2.407 3.809 0 6.948 3.14 6.948 6.949Zm-2.133 0c0-2.713-2.043-4.938-4.755-4.938-2.65 0-4.998 2.225-4.998 4.938 0 2.651 2.347 4.998 4.998 4.998 2.712 0 4.755-2.347 4.755-4.998Z" fill="#2f1c6a" fill-rule="evenodd" data-name="Path 194"/><path d="M689.706-2531.684a5.96 5.96 0 0 1 4.543-2.042v2.011c-2.378 0-4.543 1.462-4.543 4.206v7.406h-2.041v-13.41h2.041v1.829Z" fill="#2f1c6a" fill-rule="evenodd" data-name="Path 195"/><path d="M694.856-2526.777c0-3.81 3.138-6.949 6.948-6.949 3.809 0 6.948 3.14 6.948 6.949 0 3.748-3.139 7.01-6.948 7.01-3.81 0-6.948-3.262-6.948-7.01Zm2.133 0c0 2.651 2.103 4.998 4.815 4.998s4.816-2.347 4.816-4.998c0-2.713-2.104-4.938-4.816-4.938-2.712 0-4.815 2.225-4.815 4.938Z" fill="#2f1c6a" fill-rule="evenodd" data-name="Path 196"/><path d="M724.048-2533.513v12.19c0 5.274-3.14 7.62-6.949 7.62a6.93 6.93 0 0 1-6.552-4.632h2.316c.822 1.523 2.377 2.62 4.236 2.62 2.712 0 4.815-1.432 4.815-5.608v-.883c-1.218 1.402-2.986 2.316-4.998 2.316-3.81 0-6.949-3.14-6.949-6.949 0-3.748 3.14-7.01 6.95-7.01 2.01 0 3.779.945 4.997 2.379v-2.043h2.134Zm-2.194 6.674c0-2.651-2.347-4.999-5-4.999-2.71 0-4.754 2.348-4.754 5 0 2.712 2.043 4.937 4.755 4.937 2.652 0 4.999-2.225 4.999-4.938Z" fill="#2f1c6a" fill-rule="evenodd" data-name="Path 197"/><path d="M729.133-2531.684a5.958 5.958 0 0 1 4.541-2.042v2.011c-2.377 0-4.54 1.462-4.54 4.206v7.406h-2.042v-13.41h2.041v1.829Z" fill="#2f1c6a" fill-rule="evenodd" data-name="Path 198"/><path d="M734.281-2526.777c0-3.81 3.14-6.949 6.949-6.949 2.041 0 3.84.945 5.06 2.407v-2.194h2.042v13.47h-2.043v-2.193c-1.22 1.493-3.018 2.468-5.059 2.468-3.81 0-6.949-3.261-6.949-7.01Zm11.886 0c0-2.713-2.346-4.938-4.998-4.938-2.712 0-4.755 2.225-4.755 4.938 0 2.651 2.043 4.998 4.755 4.998 2.652 0 4.998-2.347 4.998-4.998Z" fill="#2f1c6a" fill-rule="evenodd" data-name="Path 199"/><path d="M765.272-2526.777c0 3.748-3.14 7.01-6.949 7.01-2.042 0-3.84-.976-5.06-2.469v8.228h-2.04v-19.505h2.04v2.194c1.22-1.462 3.018-2.407 5.06-2.407 3.81 0 6.949 3.14 6.949 6.949Zm-2.133 0c0-2.713-2.042-4.938-4.754-4.938-2.652 0-4.999 2.225-4.999 4.938 0 2.651 2.347 4.998 4.999 4.998 2.712 0 4.754-2.347 4.754-4.998Z" fill="#2f1c6a" fill-rule="evenodd" data-name="Path 200"/><path d="M767.25-2540v19.897h2.042v-7.132c0-2.956 1.676-4.48 4.39-4.48 2.223 0 3.442 1.311 3.442 3.963v7.649h2.042v-7.65c0-4.267-1.645-5.973-5.485-5.973-1.83 0-3.322.67-4.389 1.828V-2540h-2.043Z" fill="#2f1c6a" fill-rule="evenodd" data-name="Path 202"/><path d="M784.1-2531.684a5.96 5.96 0 0 1 4.541-2.042v2.011c-2.378 0-4.541 1.462-4.541 4.206v7.406h-2.042v-13.41h2.042v1.829Z" fill="#2f1c6a" fill-rule="evenodd" data-name="Path 201"/></g></svg>